<?xml version="1.0" encoding="UTF-8" standalone="no"?>
<!DOCTYPE svg PUBLIC "-//W3C//DTD SVG 20010904//EN"
              "http://www.w3.org/TR/2001/REC-SVG-20010904/DTD/svg10.dtd">

<svg xmlns="http://www.w3.org/2000/svg"
     width="158.377mm" height="102.646mm"
     viewBox="0 0 449 291">
  <path id="Selection"
        fill="none" stroke="black" stroke-width="1"
        d="M 100.00,72.00
           C 106.29,55.56 128.47,34.73 143.00,25.00
             163.63,11.19 192.90,0.04 218.00,0.00
             218.00,0.00 230.00,0.00 230.00,0.00
             238.46,0.01 237.43,0.56 245.00,1.73
             273.99,6.20 300.70,18.46 321.96,38.92
             330.56,47.18 343.36,61.05 348.00,72.00
             348.00,72.00 336.00,72.00 336.00,72.00
             328.22,71.87 327.65,67.75 322.72,62.00
             315.94,54.10 308.47,46.52 300.00,40.43
             276.96,23.85 249.47,14.67 221.00,15.00
             195.83,15.30 166.99,25.79 147.00,40.90
             140.43,45.86 133.71,51.81 128.29,58.00
             125.91,60.70 119.22,69.64 116.83,70.98
             113.98,72.57 103.73,72.00 100.00,72.00 Z
           M 142.00,55.00
           C 142.00,55.00 174.00,56.00 174.00,56.00
             177.81,55.95 185.55,53.95 188.16,56.60
             189.75,58.21 191.20,63.69 191.86,66.00
             191.86,66.00 197.66,84.00 197.66,84.00
             197.66,84.00 213.33,131.00 213.33,131.00
             213.33,131.00 221.00,155.00 221.00,155.00
             221.00,155.00 225.49,153.40 225.49,153.40
             225.49,153.40 234.33,131.00 234.33,131.00
             234.33,131.00 259.00,55.00 259.00,55.00
             259.00,55.00 270.00,55.96 270.00,55.96
             270.00,55.96 284.00,55.96 284.00,55.96
             284.00,55.96 301.94,55.15 301.94,55.15
             305.73,55.78 307.80,60.33 306.36,63.69
             305.23,66.32 297.92,66.78 295.00,67.75
             287.45,70.26 286.17,72.83 284.00,80.00
             284.00,80.00 395.00,80.00 395.00,80.00
             395.00,80.00 429.00,80.00 429.00,80.00
             429.00,80.00 448.00,81.00 448.00,81.00
             447.33,84.54 446.65,88.82 444.95,92.00
             438.81,103.52 429.06,103.00 418.00,103.00
             418.00,103.00 402.00,103.00 402.00,103.00
             402.00,103.00 324.00,103.00 324.00,103.00
             315.60,103.00 292.72,102.09 286.00,104.00
             293.78,105.89 322.14,105.00 332.00,105.00
             332.00,105.00 422.00,105.00 422.00,105.00
             423.94,105.00 427.86,104.77 429.39,106.02
             432.98,108.98 427.84,118.37 425.66,120.98
             419.86,127.96 414.53,128.99 406.00,129.00
             406.00,129.00 289.00,129.00 289.00,129.00
             289.00,129.00 289.00,131.00 289.00,131.00
             289.00,131.00 413.00,131.00 413.00,131.00
             412.92,140.25 409.98,148.42 401.00,152.59
             401.00,152.59 393.00,155.00 393.00,155.00
             393.00,155.00 400.00,155.00 400.00,155.00
             399.85,171.82 390.01,178.98 374.00,179.00
             374.00,179.00 294.00,179.00 294.00,179.00
             296.04,186.10 295.19,194.48 299.08,200.98
             303.18,207.83 308.67,206.62 311.02,209.56
             312.93,211.95 312.97,217.99 313.00,221.00
             313.00,221.00 298.00,219.05 298.00,219.05
             298.00,219.05 285.00,219.05 285.00,219.05
             285.00,219.05 266.58,219.05 266.58,219.05
             266.58,219.05 263.00,207.00 263.00,207.00
             274.08,207.00 282.31,209.36 281.99,195.00
             281.99,195.00 281.00,186.00 281.00,186.00
             281.00,186.00 281.00,177.00 281.00,177.00
             281.00,177.00 277.09,132.00 277.09,132.00
             277.09,132.00 273.00,87.00 273.00,87.00
             273.00,87.00 239.31,181.00 239.31,181.00
             239.31,181.00 231.34,203.00 231.34,203.00
             230.03,206.72 229.46,210.18 224.96,210.85
             218.61,211.80 218.00,207.92 216.33,203.00
             216.33,203.00 209.05,183.00 209.05,183.00
             209.05,183.00 186.05,119.00 186.05,119.00
             186.05,119.00 174.00,87.00 174.00,87.00
             174.00,87.00 172.17,109.00 172.17,109.00
             172.17,109.00 169.83,143.00 169.83,143.00
             169.83,143.00 166.99,178.00 166.99,178.00
             166.99,178.00 165.97,194.00 165.97,194.00
             165.68,203.16 166.54,206.85 177.00,207.00
             177.00,207.00 184.00,207.00 184.00,207.00
             184.00,207.00 182.00,220.00 182.00,220.00
             182.00,220.00 155.00,219.00 155.00,219.00
             155.00,219.00 134.00,221.00 134.00,221.00
             134.00,221.00 136.00,208.00 136.00,208.00
             151.48,206.56 152.42,191.57 153.00,179.00
             153.00,179.00 74.00,179.00 74.00,179.00
             57.40,178.97 48.05,172.39 48.00,155.00
             48.00,155.00 54.00,154.00 54.00,154.00
             40.24,153.23 35.04,143.57 35.00,131.00
             35.00,131.00 122.00,131.00 122.00,131.00
             122.00,131.00 145.00,131.00 145.00,131.00
             150.71,131.00 153.78,131.75 159.00,129.00
             159.00,129.00 42.00,129.00 42.00,129.00
             34.40,128.99 27.88,127.90 22.53,121.82
             20.06,119.01 14.60,109.21 18.60,106.02
             20.17,104.77 24.02,105.00 26.00,105.00
             26.00,105.00 117.00,105.00 117.00,105.00
             117.00,105.00 144.00,105.00 144.00,105.00
             149.65,105.00 155.53,104.45 161.00,106.00
             158.88,102.83 157.70,103.07 154.00,103.00
             154.00,103.00 125.00,103.00 125.00,103.00
             125.00,103.00 24.00,103.00 24.00,103.00
             9.02,102.98 0.35,95.34 0.00,80.00
             0.00,80.00 163.00,80.00 163.00,80.00
             161.51,66.06 150.16,67.98 140.00,65.00
             140.00,65.00 142.00,55.00 142.00,55.00 Z
           M 86.00,184.00
           C 86.00,184.00 95.00,184.00 95.00,184.00
             103.34,184.16 101.86,186.43 107.23,198.00
             113.17,210.77 120.47,221.67 130.09,232.00
             154.42,258.12 190.33,273.41 226.00,273.00
             258.30,272.62 293.63,257.43 315.83,233.96
             324.59,224.70 332.27,214.29 338.22,203.00
             338.22,203.00 346.70,184.99 346.70,184.99
             348.79,183.43 358.95,184.00 362.00,184.00
             358.15,198.30 351.50,211.70 343.33,224.00
             299.34,290.28 209.81,307.53 144.00,263.67
             132.34,255.89 122.91,247.81 113.92,237.00
             103.50,224.47 88.54,200.17 86.00,184.00 Z
           M 178.00,232.00
           C 183.86,233.68 183.17,233.45 189.00,232.00
             188.17,237.72 188.74,237.05 191.00,242.00
             186.73,242.93 186.27,243.27 184.00,247.00
             184.00,247.00 182.00,247.00 182.00,247.00
             179.73,243.27 179.27,242.93 175.00,242.00
             177.39,237.12 178.01,237.83 178.00,232.00 Z
           M 259.00,232.00
           C 264.89,233.39 264.11,233.39 270.00,232.00
             269.42,237.87 270.53,237.19 273.00,242.00
             268.82,242.90 268.04,243.18 266.00,247.00
             266.00,247.00 263.00,247.00 263.00,247.00
             261.13,243.49 260.74,243.32 257.00,242.00
             257.00,242.00 259.00,232.00 259.00,232.00 Z
           M 218.00,240.00
           C 218.00,240.00 229.00,240.00 229.00,240.00
             228.99,245.83 229.61,245.12 232.00,250.00
             227.60,250.73 227.23,251.17 225.00,255.00
             225.00,255.00 223.00,255.00 223.00,255.00
             220.77,251.17 220.40,250.73 216.00,250.00
             216.00,250.00 218.00,240.00 218.00,240.00 Z" />
</svg>
