<?xml version="1.0" encoding="UTF-8"?>
<svg width="50px" height="50px" viewBox="0 0 50 50" version="1.1" xmlns="http://www.w3.org/2000/svg" xmlns:xlink="http://www.w3.org/1999/xlink">
    <title>social-icon-tiktok</title>
    <g id="social-icon-tiktok" stroke="none" stroke-width="1" fill="none" fill-rule="evenodd">
        <g id="TikTok_logo" transform="translate(4.000000, 0.000000)" fill="#000000" fill-rule="nonzero">
            <path d="M6.64005352,47.1275106 C2.62401359,44.2652091 0,39.5337629 0,34.1814282 C0,25.4457056 6.99073155,18.3637482 15.6146089,18.3637482 C16.3312814,18.3633926 17.0470722,18.4127268 17.7570436,18.5110376 L17.7570436,18.5110376 L17.7570436,20.4500849 L17.7570436,20.4500849 L17.7566909,20.4500849 L17.7566909,27.2599875 C17.0733479,27.0403074 16.3448601,26.9210832 15.5890386,26.9210832 C11.6441654,26.9210832 8.44682535,30.1608723 8.44682535,34.1567611 C8.44682535,36.9820359 10.0450545,39.4285459 12.375651,40.620252 C13.3420304,41.1143087 14.4332631,41.3922603 15.5890386,41.3922603 C19.5257999,41.3922603 22.7176732,38.1656985 22.7312519,34.1814282 L22.7312519,34.1814282 L22.7312519,0 L31.2279833,0 L31.2279833,1.10072393 C31.2579623,1.42979712 31.3011672,1.75761909 31.3574217,2.08329609 L31.3574217,2.08329609 L31.4234701,2.43401309 C32.0867583,5.69035348 34.0546185,8.46321356 36.7499241,10.1671284 C36.8121541,10.2359757 36.8751676,10.3040845 36.9389506,10.3714405 L36.7499241,10.1669497 C38.6244884,11.3523997 40.7905536,11.9792653 43,11.9758692 L43,11.9758692 L43,13.7973009 C41.9113243,13.5616525 40.8677975,13.1727147 39.8977153,12.6468907 C40.8600408,13.1689398 41.9017838,13.5603107 43,13.7973009 L43,13.7973009 L43,20.5335597 C38.610557,20.5335597 34.5466498,19.1198499 31.2279833,16.7173116 L31.228,16.718 L31.2281597,34.1816069 C31.2281597,42.811326 24.4070662,49.827019 15.9291763,49.9968501 L15.6144325,50 C12.396989,50 9.4065035,49.0143891 6.92230907,47.3245151 L6.92230907,47.3245151 Z" id="Combined-Shape"></path>
        </g>
    </g>
</svg>