<?xml version="1.0" encoding="UTF-8"?>
<svg width="50px" height="50px" viewBox="0 0 50 50" version="1.1" xmlns="http://www.w3.org/2000/svg" xmlns:xlink="http://www.w3.org/1999/xlink">
    <title>social-icon-instagram</title>
    <g id="social-icon-instagram" stroke="none" stroke-width="1" fill="none" fill-rule="evenodd">
        <g id="instagram-light" transform="translate(4.000000, 4.000000)" fill="#000000" fill-rule="nonzero">
            <path d="M21,3.78525 C26.607,3.78525 27.272,3.80625 29.4875,3.90775 C35.1785,4.16675 37.83675,6.867 38.09575,12.516 C38.19725,14.72975 38.2165,15.39475 38.2165,21.00175 C38.2165,26.6105 38.1955,27.27375 38.09575,29.4875 C37.835,35.13125 35.18375,37.83675 29.4875,38.09575 C27.272,38.19725 26.6105,38.21825 21,38.21825 C15.393,38.21825 14.728,38.19725 12.51425,38.09575 C6.80925,37.835 4.165,35.1225 3.906,29.48575 C3.8045,27.272 3.7835,26.60875 3.7835,21 C3.7835,15.393 3.80625,14.72975 3.906,12.51425 C4.16675,6.867 6.818,4.165 12.51425,3.906 C14.72975,3.80625 15.393,3.78525 21,3.78525 L21,3.78525 Z M21,0 C15.29675,0 14.58275,0.0245 12.34275,0.126 C4.71625,0.476 0.47775,4.7075 0.12775,12.341 C0.0245,14.58275 0,15.29675 0,21 C0,26.70325 0.0245,27.419 0.126,29.659 C0.476,37.2855 4.7075,41.524 12.341,41.874 C14.58275,41.9755 15.29675,42 21,42 C26.70325,42 27.419,41.9755 29.659,41.874 C37.2785,41.524 41.5275,37.2925 41.87225,29.659 C41.9755,27.419 42,26.70325 42,21 C42,15.29675 41.9755,14.58275 41.874,12.34275 C41.531,4.72325 37.29425,0.47775 29.66075,0.12775 C27.419,0.0245 26.70325,0 21,0 Z M21,10.2165 C15.04475,10.2165 10.2165,15.04475 10.2165,21 C10.2165,26.95525 15.04475,31.78525 21,31.78525 C26.95525,31.78525 31.7835,26.957 31.7835,21 C31.7835,15.04475 26.95525,10.2165 21,10.2165 Z M21,28 C17.13425,28 14,24.8675 14,21 C14,17.13425 17.13425,14 21,14 C24.86575,14 28,17.13425 28,21 C28,24.8675 24.86575,28 21,28 Z M32.2105,7.27125 C30.8175,7.27125 29.68875,8.4 29.68875,9.79125 C29.68875,11.1825 30.8175,12.31125 32.2105,12.31125 C33.60175,12.31125 34.72875,11.1825 34.72875,9.79125 C34.72875,8.4 33.60175,7.27125 32.2105,7.27125 Z" id="Shape"></path>
        </g>
    </g>
</svg>