<?xml version="1.0" encoding="UTF-8"?>
<svg width="50px" height="50px" viewBox="0 0 50 50" version="1.1" xmlns="http://www.w3.org/2000/svg" xmlns:xlink="http://www.w3.org/1999/xlink">
    <title>social-icon-youtube</title>
    <g id="social-icon-youtube" stroke="none" stroke-width="1" fill="none" fill-rule="evenodd">
        <path d="M25.3877301,8.00098467 C27.8223476,8.00998733 40.3348536,8.10130011 43.6924965,9.02747253 C45.7630259,9.59414514 47.3804348,11.2300144 47.9407127,13.3241758 C49.5260977,19.7785714 49.159766,29.9723443 47.9714968,36.6758242 C47.411219,38.7699856 45.7938101,40.4058549 43.7232807,40.9725275 C40.3131746,41.9131713 27.4598808,41.9926624 25.3118462,41.9993799 L24.7011586,41.9993799 C22.553124,41.9926624 9.69983023,41.9131713 6.2897241,40.9725275 C4.21919471,40.4058549 2.60178584,38.7699856 2.04150798,36.6758242 C0.44688772,30.2494505 0.884023002,20.0494505 2.0107238,13.3553114 C2.57100166,11.2611499 4.18841054,9.62528067 6.25893993,9.05860806 C9.72150923,8.10349275 22.9200608,8.00932645 24.7618397,8.00080033 Z M21,16 L21,34 L35,25 L21,16 Z" id="Combined-Shape" fill="#000000" fill-rule="nonzero"></path>
    </g>
</svg>