<?xml version="1.0" standalone="no"?>
<!DOCTYPE svg PUBLIC "-//W3C//DTD SVG 20010904//EN"
 "http://www.w3.org/TR/2001/REC-SVG-20010904/DTD/svg10.dtd">
<svg version="1.0" xmlns="http://www.w3.org/2000/svg"
 width="700.000000pt" height="700.000000pt" viewBox="0 0 700.000000 700.000000"
 preserveAspectRatio="xMidYMid meet">
<metadata>
Created by potrace 1.14, written by Peter Selinger 2001-2017
</metadata>
<g transform="translate(0.000000,700.000000) scale(0.100000,-0.100000)"
fill="#000000" stroke="none">
<path d="M4139 6898 c-29 -35 -56 -65 -59 -68 -3 -3 -52 -59 -110 -125 -58
-66 -107 -122 -110 -125 -3 -3 -34 -39 -69 -80 -36 -41 -70 -79 -75 -85 -6 -5
-38 -41 -71 -80 -33 -38 -74 -86 -91 -105 -17 -19 -53 -60 -80 -91 -27 -30
-77 -86 -110 -125 -34 -38 -77 -87 -95 -109 -19 -22 -37 -42 -40 -45 -3 -3
-58 -66 -123 -140 -65 -74 -132 -150 -149 -169 -17 -19 -64 -73 -105 -120
-229 -264 -258 -295 -269 -288 -9 6 -87 16 -278 37 -55 6 -111 13 -125 15 -14
2 -50 7 -80 10 -30 3 -89 10 -130 15 -41 5 -100 11 -130 15 -30 3 -66 7 -80
10 -14 2 -50 6 -80 9 -30 4 -93 11 -140 17 -93 11 -140 16 -215 24 -27 3 -61
8 -75 10 -14 2 -52 7 -85 10 -33 4 -73 8 -90 10 -87 11 -207 25 -258 30 -32 4
-67 8 -77 10 -10 2 -47 6 -82 10 -35 3 -74 7 -88 10 -14 2 -54 7 -90 11 -36 4
-76 8 -90 10 -14 2 -50 6 -80 9 -30 3 -67 8 -82 11 -35 7 -35 -1 1 -58 16 -25
40 -65 54 -89 13 -24 235 -397 492 -829 454 -762 484 -813 524 -882 10 -18 44
-75 75 -126 31 -51 56 -95 56 -97 0 -4 -12 -31 -82 -185 -48 -105 -160 -345
-193 -415 -18 -38 -53 -115 -78 -170 -25 -55 -64 -140 -87 -190 -23 -49 -75
-162 -115 -250 -40 -88 -92 -200 -115 -250 -23 -49 -52 -112 -65 -140 -12 -27
-39 -86 -60 -130 -20 -44 -57 -123 -80 -175 -24 -52 -64 -139 -89 -193 -25
-54 -46 -99 -46 -101 0 -2 39 5 87 16 49 11 97 21 108 24 11 2 229 51 485 110
256 58 474 108 485 110 36 7 337 74 515 115 96 23 184 43 195 45 11 2 119 26
240 54 121 27 229 50 240 50 11 0 54 -33 96 -73 41 -40 105 -99 141 -132 35
-33 111 -103 168 -155 56 -52 115 -106 130 -120 15 -14 75 -70 135 -125 59
-55 119 -111 134 -124 14 -13 73 -68 131 -121 58 -53 117 -108 132 -122 15
-13 78 -72 140 -129 108 -101 198 -184 263 -243 17 -15 75 -69 130 -120 165
-154 179 -166 186 -158 4 4 10 47 14 97 3 50 8 101 10 115 2 14 6 61 10 105 3
44 8 96 10 115 7 60 30 309 41 435 2 33 7 79 10 103 2 24 7 73 9 110 3 37 7
83 10 102 2 19 7 71 10 115 4 44 8 91 10 105 2 14 6 59 10 100 3 41 8 91 10
110 3 19 7 67 10 106 3 40 7 89 9 110 2 22 7 73 11 114 4 41 8 91 10 110 2 19
6 62 9 95 13 145 22 229 25 247 0 4 27 21 59 38 31 16 80 42 107 58 28 16 142
81 255 144 113 63 221 124 240 135 19 11 55 31 80 45 25 14 101 56 170 95 69
38 152 85 185 103 96 53 134 75 240 135 55 31 129 73 165 93 36 19 81 44 100
55 19 11 127 71 240 134 113 64 220 124 238 135 l34 21 -169 72 c-92 39 -341
146 -553 237 -212 92 -626 270 -920 396 -294 127 -547 235 -561 242 -27 12
-23 -4 -79 285 -21 105 -51 256 -54 270 -2 6 -6 28 -10 50 -5 22 -21 108 -38
190 -17 83 -32 159 -34 170 -2 11 -11 54 -19 95 -8 41 -17 84 -19 96 -2 11
-16 79 -30 150 -14 71 -27 140 -30 154 -2 14 -20 104 -40 200 -19 96 -37 186
-40 200 -2 14 -19 95 -36 180 -17 85 -34 169 -36 185 -3 17 -12 56 -19 87 -7
31 -10 59 -7 62 3 3 1 6 -5 6 -5 0 -34 -28 -64 -62z"/>
</g>
</svg>
